<?xml version="1.0" ?><svg id="Layer_1" style="enable-background:new 0 0 512 512;" version="1.1" viewBox="0 0 512 512" xml:space="preserve" xmlns="http://www.w3.org/2000/svg" xmlns:xlink="http://www.w3.org/1999/xlink"><style type="text/css">
	.st0{fill:#1EF6F6;}
	.st1{fill:#FDDD7B;}
	.st2{fill:#EAF3F2;}
	.st3{fill:#D4FF93;}
	.st4{fill:#FD535F;}
	.st5{stroke:#000000;stroke-width:2;stroke-linecap:round;stroke-linejoin:round;stroke-miterlimit:10;}
	.st6{fill:none;stroke:#000000;stroke-width:2;stroke-linecap:round;stroke-linejoin:round;stroke-miterlimit:10;}
	.st7{fill:#1EF6F6;stroke:#000000;stroke-width:2;stroke-linecap:round;stroke-linejoin:round;stroke-miterlimit:10;}
</style><g><g><path class="st1" d="M8.73,51v268.71c0,8.34,6.76,15.1,15.1,15.1h292.2c4.95,0,9.59,2.43,12.41,6.5l93.32,134.8V349.9    c0-8.34,6.76-15.1,15.1-15.1h51.33c8.34,0,15.1-6.76,15.1-15.1V51c0-8.34-6.76-15.1-15.1-15.1H23.82    C15.49,35.9,8.73,42.66,8.73,51z"/><path d="M421.75,483.83c-2.49,0-4.88-1.2-6.35-3.33l-93.32-134.79c-1.37-1.99-3.64-3.18-6.06-3.18H23.82    C11.24,342.53,1,332.29,1,319.7V51c0-12.58,10.24-22.82,22.82-22.82h464.36C500.76,28.17,511,38.41,511,51V319.7    c0,12.58-10.24,22.82-22.82,22.82h-51.33c-4.07,0-7.37,3.31-7.37,7.37v126.2c0,3.38-2.2,6.37-5.43,7.38    C423.3,483.71,422.52,483.83,421.75,483.83z M23.82,43.63c-4.06,0-7.37,3.31-7.37,7.37V319.7c0,4.06,3.31,7.37,7.37,7.37h292.2    c7.49,0,14.5,3.67,18.77,9.83l79.23,114.46V349.9c0-12.58,10.24-22.82,22.83-22.82h51.33c4.06,0,7.37-3.31,7.37-7.37V51    c0-4.06-3.31-7.37-7.37-7.37H23.82z"/></g><g><g><path d="M430.47,111.33H81.54c-4.27,0-7.73-3.46-7.73-7.73s3.46-7.73,7.73-7.73h348.93c4.27,0,7.73,3.46,7.73,7.73     S434.74,111.33,430.47,111.33z"/></g><g><path d="M430.47,186.9H81.54c-4.27,0-7.73-3.46-7.73-7.73c0-4.27,3.46-7.73,7.73-7.73h348.93c4.27,0,7.73,3.46,7.73,7.73     C438.19,183.44,434.74,186.9,430.47,186.9z"/></g><g><path d="M377.12,262.46H134.88c-4.27,0-7.73-3.46-7.73-7.73s3.46-7.73,7.73-7.73h242.25c4.27,0,7.73,3.46,7.73,7.73     S381.39,262.46,377.12,262.46z"/></g></g></g></svg>