<?xml version="1.0" ?><!DOCTYPE svg  PUBLIC '-//W3C//DTD SVG 1.1//EN'  'http://www.w3.org/Graphics/SVG/1.1/DTD/svg11.dtd'><svg enable-background="new 0 0 512 512" height="512px" id="UFO" version="1.1" viewBox="0 0 512 512" width="512px" xml:space="preserve" xmlns="http://www.w3.org/2000/svg" xmlns:xlink="http://www.w3.org/1999/xlink"><circle cx="257.38" cy="372.641" fill="#B8D2FF" r="19.787"/><path d="M84.484,37.289v323.243c0,0,41.385-34.934,98.135-40.934l25.401-128.774  c-17.067-1.267-32.753-3.192-46.134-5.718c-27.103-5.116-37.437-11.142-41.207-16.447c-5.563-4.163-8.369-8.753-8.369-13.753  c0-11.615,15.103-21.028,44.889-27.979c3.521-0.821,7.201-1.592,11.01-2.315c16.851-31.483,51.657-51.618,89.861-51.618  c4.939,0,9.868,0.333,14.708,0.992l0.022-0.105l4.789,0.874c0.004,0.001,0.008,0.001,0.013,0.002  c11.909,2.172,23.421,6.429,33.758,12.429c1.033,0.6,2.059,1.21,3.067,1.845c1.587,0.998,3.142,2.037,4.663,3.118l3.957,2.812  l-0.073,0.108c10.479,8.25,19.082,18.454,25.135,29.848c3.251,0.635,6.413,1.303,9.449,2.011  c29.786,6.95,44.889,16.363,44.889,27.979c0,5-2.807,9.59-8.369,13.753c-3.771,5.305-14.104,11.331-41.207,16.447  c-13.563,2.56-29.494,4.502-46.831,5.769l24.8,127.891c0,0,71.445,16.379,96.112,36.355V37.289H84.484z M379.328,103.432  c-9.925,0-18-8.075-18-18s8.075-18,18-18s18,8.075,18,18S389.253,103.432,379.328,103.432z" fill="#B8D2FF"/><path d="M181.75,153.469c5.222,0,9.649-3.463,11.108-8.213c-7.388,0.778-14.4,1.694-20.952,2.742  C173.975,151.297,177.644,153.469,181.75,153.469z" fill="#B8D2FF"/><path d="M247.513,142.174c1.919,3.796,5.858,6.425,10.367,6.425c4.501,0,8.438-2.623,10.359-6.412  c-3.596-0.055-7.214-0.088-10.859-0.088C254.069,142.099,250.783,142.128,247.513,142.174z" fill="#B8D2FF"/><path d="M332.31,153.469c4.159,0,7.856-2.214,9.911-5.572c-6.583-1.04-13.624-1.947-21.038-2.717  C322.618,149.968,327.062,153.469,332.31,153.469z" fill="#B8D2FF"/><path d="M125.126,377.711c-1.98-0.033-3.563-1.67-3.53-3.648c0.033-1.98,1.659-3.555,3.65-3.531l0.167-9.998  c-7.502-0.119-13.69,5.867-13.816,13.361c-0.125,7.492,5.869,13.689,13.362,13.816c0.077,0,0.153,0,0.23,0  c7.389,0,13.461-5.947,13.586-13.361l-9.999-0.168C128.743,376.16,127.078,377.762,125.126,377.711z" fill="#1F4499"/><path d="M233.044,437.781c0.574,0.77,0.815,1.715,0.678,2.664s-0.636,1.787-1.404,2.361  c-1.586,1.186-3.841,0.859-5.025-0.725c-1.185-1.586-0.859-3.842,0.727-5.025l-5.987-8.01c-6.002,4.486-7.235,13.02-2.749,19.021  c2.666,3.566,6.759,5.449,10.902,5.449c2.831,0,5.684-0.879,8.12-2.701c2.908-2.172,4.795-5.348,5.314-8.941  c0.519-3.592-0.392-7.172-2.565-10.08L233.044,437.781z" fill="#1F4499"/><path d="M386.395,390.996c-1.791-0.84-2.564-2.982-1.724-4.775c0.408-0.867,1.13-1.525,2.031-1.852  c0.902-0.324,1.876-0.281,2.745,0.127l4.25-9.051c-3.286-1.543-6.977-1.715-10.39-0.482c-3.415,1.232-6.145,3.721-7.688,7.008  c-3.186,6.783-0.259,14.893,6.524,18.078c1.86,0.873,3.823,1.287,5.756,1.287c5.107,0,10.012-2.891,12.321-7.813l-9.051-4.25  C390.33,391.064,388.19,391.84,386.395,390.996z" fill="#1F4499"/><rect fill="#1F4499" height="9.047" transform="matrix(-0.5 -0.866 0.866 -0.5 5.7002 701.1756)" width="9.046" x="200.728" y="344.419"/><rect fill="#1F4499" height="9.047" transform="matrix(-0.5 -0.866 0.866 -0.5 158.1183 783.0388)" width="9.046" x="300.592" y="341.349"/><rect fill="#1F4499" height="9.046" transform="matrix(-0.574 0.8189 -0.8189 -0.574 675.8105 307.6281)" width="9.047" x="253.357" y="325.094"/><path d="M281.402,362.398c-0.544-0.428-1.348-1.064-1.577-1.328c-0.1-0.396-0.162-1.33-0.205-1.965  c-0.166-2.467-0.417-6.193-3.395-8.656c-2.978-2.461-6.687-2.006-9.14-1.705c-0.617,0.076-1.529,0.182-1.939,0.17  c-0.385-0.227-1.124-0.865-1.629-1.301c-1.948-1.684-4.625-3.992-8.354-3.637c-3.739,0.355-5.927,3.123-7.524,5.143  c-0.429,0.543-1.065,1.348-1.328,1.576c-0.397,0.1-1.331,0.162-1.964,0.205c-2.467,0.166-6.195,0.416-8.656,3.393l0,0.002  c-2.461,2.977-2.007,6.686-1.706,9.141c0.075,0.615,0.186,1.518,0.169,1.939c-0.226,0.383-0.865,1.123-1.3,1.627  c-1.684,1.949-3.991,4.619-3.636,8.357c0.354,3.736,3.122,5.924,5.142,7.521c0.542,0.43,1.347,1.066,1.577,1.328  c0.099,0.398,0.162,1.332,0.205,1.965c0.166,2.467,0.417,6.195,3.394,8.656c2.976,2.461,6.685,2.006,9.14,1.705  c0.616-0.074,1.521-0.182,1.939-0.168c0.384,0.225,1.125,0.863,1.628,1.299c1.813,1.568,4.25,3.674,7.591,3.674  c0.25,0,0.505-0.012,0.765-0.037c3.738-0.354,5.927-3.121,7.524-5.143c0.429-0.541,1.064-1.348,1.327-1.576  c0.396-0.1,1.33-0.162,1.964-0.205c2.467-0.166,6.194-0.416,8.656-3.393c2.461-2.979,2.007-6.686,1.706-9.141  c-0.076-0.615-0.186-1.518-0.169-1.939c0.225-0.385,0.864-1.125,1.301-1.629c1.684-1.949,3.99-4.617,3.636-8.357  C286.188,366.184,283.421,363.996,281.402,362.398z M275.342,371.738c-1.179,1.363-2.646,3.061-3.317,5.25  c-0.656,2.139-0.399,4.229-0.174,6.074c0.045,0.365,0.102,0.826,0.139,1.242c-0.416,0.041-0.878,0.072-1.246,0.098  c-1.855,0.125-3.956,0.266-5.933,1.313c-2.024,1.07-3.415,2.83-4.532,4.244c-0.198,0.25-0.44,0.557-0.676,0.84  c-0.284-0.234-0.579-0.49-0.82-0.697c-1.363-1.18-3.061-2.645-5.251-3.318c-1.02-0.313-2.029-0.418-3.005-0.418  c-1.071,0-2.103,0.127-3.067,0.244c-0.367,0.045-0.826,0.102-1.242,0.139c-0.042-0.414-0.073-0.877-0.098-1.246  c-0.125-1.854-0.266-3.955-1.312-5.932c-1.072-2.025-2.831-3.416-4.245-4.533c-0.25-0.197-0.556-0.439-0.839-0.676  c0.234-0.283,0.489-0.578,0.698-0.82c1.178-1.363,2.645-3.061,3.317-5.25c0.656-2.139,0.399-4.229,0.173-6.072  c-0.045-0.367-0.101-0.826-0.138-1.242c0.415-0.043,0.877-0.074,1.246-0.098c1.854-0.125,3.956-0.268,5.932-1.313  c2.024-1.072,3.416-2.832,4.534-4.244c0.198-0.25,0.44-0.557,0.675-0.84c0.284,0.232,0.58,0.488,0.821,0.697  c1.363,1.178,3.061,2.645,5.249,3.316c2.139,0.656,4.229,0.4,6.074,0.174c0.366-0.045,0.826-0.102,1.242-0.139  c0.042,0.416,0.073,0.879,0.098,1.246c0.125,1.855,0.267,3.957,1.313,5.932c1.071,2.025,2.831,3.416,4.245,4.535  c0.25,0.197,0.556,0.439,0.839,0.674C275.806,371.201,275.55,371.498,275.342,371.738z" fill="#1F4499"/><path d="M394.079,168.659c5.563-4.163,8.369-8.753,8.369-13.753c0-11.615-15.103-21.028-44.889-27.979  c-3.036-0.708-6.198-1.375-9.449-2.011c-6.053-11.394-14.656-21.597-25.135-29.848l0.073-0.108l-3.957-2.812  c-1.521-1.081-3.076-2.121-4.663-3.118c-1.009-0.634-2.034-1.245-3.067-1.845c-10.337-6-21.849-10.257-33.758-12.429  c-0.005,0-0.009-0.001-0.013-0.002l-4.789-0.874l-0.022,0.105c-4.84-0.659-9.769-0.992-14.708-0.992  c-38.205,0-73.011,20.135-89.861,51.618c-3.809,0.723-7.489,1.494-11.01,2.315c-29.786,6.95-44.889,16.363-44.889,27.979  c0,5,2.806,9.59,8.369,13.753c3.77,5.305,14.104,11.331,41.207,16.447c13.381,2.525,29.067,4.451,46.134,5.718  c15.528,1.153,32.197,1.763,49.359,1.763c16.905,0,33.331-0.592,48.661-1.712c17.337-1.266,33.269-3.208,46.831-5.769  C379.975,179.99,390.309,173.964,394.079,168.659z M281.791,85.895c0.886,0.222,1.769,0.456,2.646,0.703  c0.278,0.079,0.558,0.155,0.835,0.236c1.051,0.306,2.099,0.625,3.138,0.966c0.143,0.046,0.283,0.098,0.426,0.145  c0.917,0.306,1.827,0.627,2.733,0.96c0.284,0.104,0.568,0.21,0.852,0.317c0.991,0.375,1.977,0.761,2.953,1.168  c0.041,0.017,0.084,0.033,0.126,0.051c1.01,0.423,2.008,0.869,3.001,1.325c0.271,0.125,0.542,0.253,0.813,0.38  c0.849,0.4,1.691,0.812,2.526,1.236c0.156,0.08,0.315,0.156,0.472,0.237c0.964,0.497,1.915,1.014,2.858,1.543  c0.243,0.136,0.483,0.275,0.725,0.414c0.777,0.446,1.548,0.902,2.311,1.369c0.138,0.085,0.276,0.168,0.414,0.253  c-2.95,2.39-6.662,3.737-10.566,3.737c-8.712,0-15.897-6.662-16.729-15.159C281.48,85.815,281.636,85.856,281.791,85.895z   M258.071,82.994c4.428,0,8.841,0.298,13.179,0.88c-0.001,0.084-0.006,0.168-0.006,0.253c0,14.782,12.026,26.808,26.809,26.808  c7.191,0,13.968-2.869,18.943-7.85c7.107,5.629,13.237,12.25,18.125,19.57c-22.921-3.531-49.719-5.431-77.741-5.431  c-18.941,0-37.326,0.867-54.332,2.519c1.697-2.043,3.54-3.972,5.538-5.761l-6.67-7.45c-4.786,4.285-8.86,9.221-12.155,14.703  c-2.917,0.372-5.774,0.771-8.583,1.192C197.451,98.162,226.445,82.994,258.071,82.994z M159.473,136.666  c26.094-6.088,60.864-9.441,97.907-9.441c37.041,0,71.813,3.353,97.907,9.441c26.941,6.286,35.735,13.411,36.991,17.285  c-4.903-4.762-15.782-9.912-39.406-14.372c-25.556-4.824-59.469-7.48-95.492-7.48c-36.024,0-69.937,2.657-95.493,7.48  c-23.624,4.459-34.503,9.61-39.406,14.372C123.737,150.077,132.53,142.952,159.473,136.666z M342.221,147.897  c-2.055,3.357-5.752,5.572-9.911,5.572c-5.248,0-9.691-3.501-11.127-8.289C328.597,145.95,335.638,146.857,342.221,147.897z   M268.239,142.187c-1.922,3.789-5.858,6.412-10.359,6.412c-4.509,0-8.448-2.628-10.367-6.425c3.27-0.045,6.556-0.075,9.867-0.075  C261.025,142.099,264.644,142.132,268.239,142.187z M192.858,145.255c-1.459,4.75-5.886,8.213-11.108,8.213  c-4.106,0-7.775-2.171-9.844-5.472C178.458,146.95,185.47,146.034,192.858,145.255z M159.473,173.145  c-15.695-3.662-25.229-7.608-30.706-11.032c0.737-1.223,5.58-6.921,32.904-12.307c3.201,8.055,11.077,13.663,20.079,13.663  c11.102,0,20.272-8.413,21.481-19.197c10.705-0.904,22.036-1.536,33.751-1.876c2.426,9.284,10.915,16.203,20.898,16.203  c9.967,0,18.451-6.905,20.889-16.171c11.107,0.338,21.86,0.939,32.054,1.787c1.182,10.813,10.366,19.255,21.487,19.255  c9.071,0,16.969-5.66,20.133-13.788c27.886,5.42,32.806,11.198,33.55,12.432c-5.477,3.424-15.011,7.37-30.705,11.032  c-15.316,3.574-33.636,6.196-53.635,7.76c0.15-0.573,0.254-1.169,0.254-1.813c0-6.033-6.904-9.844-21.728-11.994l-1.436,9.896  c4.515,0.655,7.712,1.423,9.889,2.114c-5.402,1.683-16.02,3.478-31.252,3.478c-15.28,0-25.917-1.806-31.302-3.494  c5.385-1.688,16.022-3.494,31.302-3.494c2.281,0,4.566,0.043,6.793,0.129l0.383-9.993c-2.354-0.09-4.768-0.136-7.176-0.136  c-10.901,0-21.2,0.923-29,2.599c-6.666,1.433-15.527,4.12-15.527,10.895c0,0.644,0.103,1.24,0.254,1.813  C193.107,179.341,174.789,176.719,159.473,173.145z" fill="#1F4499"/><path d="M234.694,99.788c5.779-1.615,11.764-2.248,17.775-1.883l0.606-9.981c-7.129-0.431-14.219,0.318-21.073,2.234  c-8.07,2.255-15.528,6.027-22.166,11.211l6.155,7.881C221.596,104.873,227.888,101.689,234.694,99.788z" fill="#1F4499"/><rect fill="#1F4499" height="44.5" width="10" x="252.379" y="215.25"/><rect fill="#1F4499" height="22.5" width="10" x="252.379" y="274.25"/><rect fill="#1F4499" height="24.858" transform="matrix(-0.9959 0.0904 -0.0904 -0.9959 586.8674 461.2253)" width="10" x="277.991" y="231.471"/><rect fill="#1F4499" height="10" transform="matrix(-0.0904 -0.9959 0.9959 -0.0904 25.3746 600.8433)" width="47.901" x="263.119" y="283.834"/><rect fill="#1F4499" height="24.858" transform="matrix(0.9959 0.0904 -0.0904 0.9959 23.8852 -20.1443)" width="10" x="229.247" y="241.086"/><rect fill="#1F4499" height="47.903" transform="matrix(-0.9959 -0.0904 0.0904 -0.9959 432.4047 616.4878)" width="10" x="225.168" y="274.497"/><rect fill="#1F4499" height="24.858" transform="matrix(-0.9763 -0.2163 0.2163 -0.9763 299.8182 495.4305)" width="10" x="172.014" y="218.883"/><rect fill="#1F4499" height="47.903" transform="matrix(-0.9763 -0.2164 0.2164 -0.9763 270.9583 580.3913)" width="10.001" x="162.253" y="251.41"/><path d="M379.328,67.432c-9.925,0-18,8.075-18,18s8.075,18,18,18s18-8.075,18-18S389.253,67.432,379.328,67.432z   M379.328,93.432c-4.411,0-8-3.589-8-8s3.589-8,8-8s8,3.589,8,8S383.739,93.432,379.328,93.432z" fill="#1F4499"/><rect fill="#1F4499" height="24.858" transform="matrix(0.9744 -0.2248 0.2248 0.9744 -43.3298 82.0171)" width="10" x="333.507" y="218.859"/><rect fill="#1F4499" height="10.001" transform="matrix(-0.2248 -0.9744 0.9744 -0.2248 158.8006 676.8457)" width="47.903" x="324.697" y="270.252"/><rect fill="#1F4499" height="9.047" width="9.047" x="120.565" y="75.746"/><rect fill="#1F4499" height="9.047" width="9.047" x="164.92" y="58.385"/><rect fill="#1F4499" height="9.046" width="9.047" x="402.448" y="219.216"/><rect fill="#1F4499" height="9.047" width="9.047" x="107.072" y="244.458"/><rect fill="#1F4499" height="9.047" width="9.047" x="134.251" y="266.117"/><rect fill="#1F4499" height="9.047" width="9.047" x="374.331" y="236.162"/><rect fill="#1F4499" height="9.047" width="9.047" x="114.098" y="288.283"/><rect fill="#1F4499" height="9.046" width="9.047" x="365.851" y="200.464"/><rect fill="#1F4499" height="9.046" width="9.047" x="149.629" y="95.141"/><path d="M79.484,32.4v447.2h353.031V32.4H79.484z M89.484,469.6V360.924c21.449-15.494,52.317-27.887,87.824-35.293  l-15.394,80.305l9.821,1.883l38.296-199.778l-9.821-1.883l-20.868,108.86c-35.451,6.961-66.841,18.795-89.858,33.791V42.4h333.031  v304.655c-22.827-14.287-52.656-25.266-87.096-32.02l-20.871-108.878l-9.82,1.883l38.296,199.778l9.82-1.883l-15.395-80.307  c34.334,7.135,63.55,18.605,85.065,33.381V469.6H89.484z" fill="#1F4499"/></svg>